
<svg 
    viewBox="0 0 1000 400" 
    aria-hidden="true" 
    fill="none" 
    xmlns="http://www.w3.org/2000/svg">
    <path d="M830.454 126.344C830.452 171.607 830.562 215.918 830.389 260.229C830.325 276.538 817.901 285.69 804.136 279.985C794.617 276.041 792.652 267.888 792.656 258.7C792.673 219.387 792.644 180.073 792.676 140.76C792.681 133.772 792.364 126.726 793.127 119.81C794.404 108.241 802.48 101.416 813.11 102.025C823.239 102.606 829.725 109.853 830.416 121.395C830.495 122.723 830.444 124.059 830.454 126.344Z" fill="#DB4437"/>
    <path d="M720.104 134.177C720.463 127.584 720.144 121.815 721.332 116.374C723.418 106.82 731.778 101.228 741.212 102.082C750.712 102.942 757.888 110.006 757.93 119.953C758.133 167.602 758.157 215.254 757.929 262.904C757.875 274.186 749.558 281.729 738.737 281.665C728.384 281.603 720.406 273.722 720.222 262.103C719.87 239.783 720.108 217.453 720.105 195.127C720.102 175.134 720.104 155.141 720.104 134.177Z" fill="#4285F4"/>
    <path d="M685.881 218C685.874 233.321 686.249 247.655 685.739 261.958C685.33 273.436 678.696 280.247 668.255 281.485C659.876 282.478 651.413 277.191 648.854 269.014C648.08 266.54 647.986 263.778 647.981 261.148C647.925 230.841 647.892 200.534 647.97 170.227C648.006 156.542 655.322 148.448 667.224 148.541C678.271 148.628 685.688 156.99 685.836 170.041C686.013 185.692 685.88 201.347 685.881 218Z" fill="#F4B400"/>
    <path d="M659.464 137.666C649.436 134.048 644.763 127.703 645.958 117.628C646.905 109.641 651.996 105.508 659.291 103.526C668.961 100.898 678.142 101.835 684.62 110.029C692.884 120.483 685.882 135.744 672.177 137.816C668.291 138.403 664.238 137.886 659.464 137.666Z" fill="#F4B400"/>
    <path d="M541.694 296.498C502.095 287.204 480.98 251.212 493.995 213.882C511.703 163.093 530.68 112.746 549.113 62.2061C570.036 70.0304 579.788 99.5953 569.234 122.736C563.301 135.743 556.547 148.374 550.196 161.192C548.765 164.08 547.472 167.037 546.035 170.136C592.109 177.456 611.794 193.503 615.445 227.686C606.181 227.686 596.994 228.225 587.952 227.318C585.603 227.082 583.313 222.542 581.674 219.602C574.947 207.532 562.338 200.609 549.384 202.22C536.85 203.779 525.692 213.522 522.362 225.814C518.911 238.554 523.879 252.269 534.841 260.264C550.509 271.692 573.368 266.424 581.432 248.514C584.555 241.577 588.232 239.916 594.993 240.483C601.551 241.034 608.192 240.602 614.735 240.602C615.678 274.544 580.594 301.307 541.694 296.498Z" fill="#10B981"/>
    <path d="M517.535 127.767C514.641 134.694 512.043 140.905 509.445 147.116C508.38 146.656 507.314 146.196 506.248 145.736C510.689 121.194 515.13 96.6525 519.598 71.9595C535.042 77.0828 535.642 78.1774 530.816 91.5038C526.521 103.365 522.161 115.202 517.535 127.767Z" fill="#10B981"/>
    <path d="M500.705 135.134C497.845 150.974 495.184 165.978 492.522 180.982C492.025 180.944 491.527 180.907 491.03 180.869C491.03 149.905 491.03 118.94 491.03 87.9333C506.269 89.0526 508.391 91.3958 506.196 104.866C504.593 114.703 502.679 124.489 500.705 135.134Z" fill="#10B981"/>
    <path d="M376.249 267.807C363.151 237.229 350.342 207.353 337.472 177.504C333.937 169.305 332.6 160.224 339.983 154.686C345.032 150.898 353.833 148.911 359.781 150.506C364.821 151.857 369.7 158.871 372.004 164.468C380.581 185.308 388.059 206.6 395.976 227.712C396.665 229.55 397.547 231.316 398.987 234.587C407.605 210.725 415.743 188.207 423.867 165.683C426.8 157.551 430.707 150.537 440.431 149.024C451.679 147.274 461.382 155.063 460.962 166.349C460.806 170.552 459.572 174.908 457.952 178.832C443.518 213.777 428.897 248.645 414.3 283.522C412.764 287.193 411.109 290.82 409.374 294.402C396.365 321.264 372.746 323.134 349.263 315.396C340.191 312.408 336.528 303.874 339.257 295.378C342.031 286.739 348.977 283.166 358.999 285.224C360.3 285.491 361.705 286.223 362.881 285.952C367.756 284.829 373.943 284.735 376.925 281.639C379.044 279.439 376.808 273.044 376.249 267.807Z" fill="#24292F"/>
    <path d="M236.293 149.994C251.371 150.483 265.818 149.548 279.732 151.842C299.191 155.05 311.637 168.552 313.481 187.596C315.946 213.034 315.547 238.795 315.438 264.414C315.397 274.146 308.774 280.377 298.914 281.293C289.378 282.179 282.269 278.06 278.859 267.81C264.778 281.472 247.663 284.299 229.586 281.396C208.456 278.001 196.103 262.838 195.992 241.905C195.884 221.35 208.361 205.161 229.553 202.501C245.394 200.513 261.684 202.109 277.896 202.109C278.527 191.218 272.119 182.69 259.385 182.251C248.565 181.877 237.595 183.504 226.811 185.07C217 186.496 209.441 183.202 206.644 174.95C204.026 167.225 208.337 158.499 217.252 155.058C223.089 152.804 229.352 151.655 236.293 149.994ZM242.307 226.547C231.067 234.05 229.438 244.677 238.456 251.665C251.36 261.665 275.405 253.484 279.332 237.774C280.925 231.399 280.007 226.219 272.205 225.935C262.763 225.591 253.295 225.955 242.307 226.547Z" fill="#24292F"/>
    <path d="M41.828 188.025C41.8313 181.031 41.7282 175.029 41.8604 169.032C42.1207 157.222 46.8596 151.257 57.3733 149.25C67.3715 147.341 74.1782 151.556 78.7505 162.437C79.1222 163.322 79.745 164.101 80.5017 165.339C97.761 146.266 118.794 143.246 141.326 152.354C165.128 161.975 175.395 182.111 177.697 206.458C179.455 225.047 176.352 242.852 165.433 258.781C147.619 284.766 106.128 291.265 83.0347 268.362C82.4319 267.764 81.5958 267.402 79.7018 266.172C79.7018 277.783 80.0122 288.318 79.6281 298.827C79.0697 314.109 67.5376 323.336 54.6972 319.037C45.1714 315.847 41.7072 308.791 41.7564 299.011C41.9405 262.348 41.8288 225.683 41.828 188.025ZM133.88 193.542C126.207 183.615 116.516 177.967 103.685 180.814C89.2574 184.016 80.1118 196.612 79.3445 213.261C78.5784 229.884 86.3863 243.794 100.317 247.942C105.946 249.618 112.963 249.729 118.527 247.963C138.872 241.507 145.815 217.576 133.88 193.542Z" fill="#24292F"/>
</svg>
