<svg width="1500" height="1500" viewBox="0 0 1500 1500" fill="none" xmlns="http://www.w3.org/2000/svg">
<rect width="1500" height="1500" fill="#F5F5F5"/>
<path d="M706.085 1139.77C547.74 1102.81 463.305 959.671 515.35 811.21C586.16 609.222 662.043 408.994 735.755 208C819.418 239.117 858.416 356.696 816.211 448.725C792.489 500.453 765.48 550.688 740.085 601.662C734.362 613.149 729.193 624.909 723.446 637.235C907.684 666.345 986.399 730.163 1001 866.107C963.957 866.107 927.218 868.254 891.06 864.643C881.668 863.705 872.513 845.652 865.959 833.957C839.058 785.955 788.637 758.423 736.838 764.831C686.716 771.032 642.098 809.777 628.783 858.662C614.983 909.331 634.848 963.873 678.685 995.671C741.337 1041.12 832.743 1020.17 864.988 948.939C877.477 921.351 892.181 914.745 919.216 917.002C945.442 919.191 971.996 917.476 998.162 917.476C1001.93 1052.46 861.64 1158.9 706.085 1139.77Z" fill="#10B981"/>
<path d="M609.579 470.022C597.894 497.583 587.403 522.291 576.911 547C572.608 545.17 568.304 543.34 564 541.51C581.934 443.874 599.867 346.238 617.912 248C680.281 268.383 682.703 272.737 663.214 325.755C645.868 372.941 628.263 420.036 609.579 470.022Z" fill="#10B981"/>
<path d="M542.345 498.688C531.009 561.675 520.462 621.337 509.915 681C507.943 680.851 505.972 680.701 504 680.552C504 557.424 504 434.296 504 311C564.394 315.451 572.806 324.768 564.106 378.332C557.753 417.447 550.169 456.361 542.345 498.688Z" fill="#10B981"/>
</svg>
